<svg width="353" height="35" viewBox="0 0 353 35" fill="none" xmlns="http://www.w3.org/2000/svg">
<path d="M0.0263672 34V0.649997H3.62637V30.5H20.6764V34H0.0263672ZM39.2482 34.5C35.1149 34.5 31.8982 33.2833 29.5982 30.85C27.3316 28.4167 26.1982 24.9333 26.1982 20.4V0.649997H29.7982V20.6C29.7982 24.1667 30.5982 26.8167 32.1982 28.55C33.7982 30.25 36.1482 31.1 39.2482 31.1C42.3482 31.1 44.7149 30.25 46.3482 28.55C47.9816 26.8167 48.7982 24.1667 48.7982 20.6V0.649997H52.2982V20.4C52.2982 23.4333 51.7816 26 50.7482 28.1C49.7149 30.2 48.2316 31.8 46.2982 32.9C44.3649 33.9667 42.0149 34.5 39.2482 34.5ZM85.2174 34H80.9174L57.4674 0.649997H61.7674L85.2174 34ZM70.8174 14.6L80.6174 0.649997H85.0174L73.1174 17.6L70.8174 14.6ZM72.2674 18.75L61.5674 34H57.1674L69.3174 16.65L72.2674 18.75ZM103.311 34.5C99.1774 34.5 95.9607 33.2833 93.6607 30.85C91.3941 28.4167 90.2607 24.9333 90.2607 20.4V0.649997H93.8607V20.6C93.8607 24.1667 94.6607 26.8167 96.2607 28.55C97.8607 30.25 100.211 31.1 103.311 31.1C106.411 31.1 108.777 30.25 110.411 28.55C112.044 26.8167 112.861 24.1667 112.861 20.6V0.649997H116.361V20.4C116.361 23.4333 115.844 26 114.811 28.1C113.777 30.2 112.294 31.8 110.361 32.9C108.427 33.9667 106.077 34.5 103.311 34.5ZM124.88 34V0.649997H138.58C141.847 0.649997 144.297 1.46666 145.93 3.1C147.597 4.73333 148.43 7.15 148.43 10.35C148.43 12.2833 148.03 14 147.23 15.5C146.43 17 145.313 18.1833 143.88 19.05C142.447 19.9167 140.763 20.35 138.83 20.35L140.33 19.35L149.93 34H145.68L135.78 18.7L137.58 20.55H128.48V34H124.88ZM128.48 17.15H136.93C139.697 17.15 141.697 16.6 142.93 15.5C144.197 14.3667 144.83 12.7333 144.83 10.6C144.83 8.6 144.363 7.01667 143.43 5.85C142.497 4.65 140.747 4.05 138.18 4.05H128.48V17.15ZM156.423 34V0.649997H160.023V34H156.423ZM191.584 34V4.05H179.784V0.649997H206.934V4.05H195.184V34H191.584ZM212.185 34V0.649997H225.885C229.151 0.649997 231.601 1.46666 233.235 3.1C234.901 4.73333 235.735 7.15 235.735 10.35C235.735 12.2833 235.335 14 234.535 15.5C233.735 17 232.618 18.1833 231.185 19.05C229.751 19.9167 228.068 20.35 226.135 20.35L227.635 19.35L237.235 34H232.985L223.085 18.7L224.885 20.55H215.785V34H212.185ZM215.785 17.15H224.235C227.001 17.15 229.001 16.6 230.235 15.5C231.501 14.3667 232.135 12.7333 232.135 10.6C232.135 8.6 231.668 7.01667 230.735 5.85C229.801 4.65 228.051 4.05 225.485 4.05H215.785V17.15ZM240.478 34L253.778 0.649997H257.378L270.628 34H266.778L255.228 4L255.978 3.9L244.378 34H240.478ZM246.328 23.6L247.878 20.15H264.228L264.478 23.6H246.328ZM281.647 34L268.847 0.649997H272.697L284.247 30.95H282.947L294.297 0.749999L297.997 0.649997L285.197 34H281.647ZM303.249 34V0.649997H324.299V4.05H306.849V15.55H322.199V19.05H306.849V30.6H324.299V34H303.249ZM332.302 34V0.649997H335.902V30.5H352.952V34H332.302Z" fill="black"/>
</svg>
