<svg width="296" height="28" viewBox="0 0 296 28" fill="none" xmlns="http://www.w3.org/2000/svg">
<path d="M0.7125 27V0.319998H3.5925V24.2H17.2325V27H0.7125ZM32.09 27.4C28.7833 27.4 26.21 26.4267 24.37 24.48C22.5567 22.5333 21.65 19.7467 21.65 16.12V0.319998H24.53V16.28C24.53 19.1333 25.17 21.2533 26.45 22.64C27.73 24 29.61 24.68 32.09 24.68C34.57 24.68 36.4633 24 37.77 22.64C39.0767 21.2533 39.73 19.1333 39.73 16.28V0.319998H42.53V16.12C42.53 18.5467 42.1167 20.6 41.29 22.28C40.4633 23.96 39.2767 25.24 37.73 26.12C36.1833 26.9733 34.3033 27.4 32.09 27.4ZM68.8653 27H65.4253L46.6653 0.319998H50.1053L68.8653 27ZM57.3453 11.48L65.1853 0.319998H68.7053L59.1853 13.88L57.3453 11.48ZM58.5053 14.8L49.9453 27H46.4253L56.1453 13.12L58.5053 14.8ZM83.34 27.4C80.0333 27.4 77.46 26.4267 75.62 24.48C73.8067 22.5333 72.9 19.7467 72.9 16.12V0.319998H75.78V16.28C75.78 19.1333 76.42 21.2533 77.7 22.64C78.98 24 80.86 24.68 83.34 24.68C85.82 24.68 87.7133 24 89.02 22.64C90.3267 21.2533 90.98 19.1333 90.98 16.28V0.319998H93.78V16.12C93.78 18.5467 93.3667 20.6 92.54 22.28C91.7133 23.96 90.5267 25.24 88.98 26.12C87.4333 26.9733 85.5533 27.4 83.34 27.4ZM100.595 27V0.319998H111.555C114.169 0.319998 116.129 0.973331 117.435 2.28C118.769 3.58667 119.435 5.52 119.435 8.08C119.435 9.62667 119.115 11 118.475 12.2C117.835 13.4 116.942 14.3467 115.795 15.04C114.649 15.7333 113.302 16.08 111.755 16.08L112.955 15.28L120.635 27H117.235L109.315 14.76L110.755 16.24H103.475V27H100.595ZM103.475 13.52H110.235C112.449 13.52 114.049 13.08 115.035 12.2C116.049 11.2933 116.555 9.98667 116.555 8.28C116.555 6.68 116.182 5.41333 115.435 4.48C114.689 3.52 113.289 3.04 111.235 3.04H103.475V13.52ZM131.268 27V14.76L121.308 0.319998H124.788L133.228 12.8L132.308 12.56L140.588 0.319998H144.068L133.668 15.44L134.148 13.6V27H131.268ZM166.576 27V3.04H157.136V0.319998H178.856V3.04H169.456V27H166.576ZM183.056 27V0.319998H194.016C196.63 0.319998 198.59 0.973331 199.896 2.28C201.23 3.58667 201.896 5.52 201.896 8.08C201.896 9.62667 201.576 11 200.936 12.2C200.296 13.4 199.403 14.3467 198.256 15.04C197.11 15.7333 195.763 16.08 194.216 16.08L195.416 15.28L203.096 27H199.696L191.776 14.76L193.216 16.24H185.936V27H183.056ZM185.936 13.52H192.696C194.91 13.52 196.51 13.08 197.496 12.2C198.51 11.2933 199.016 9.98667 199.016 8.28C199.016 6.68 198.643 5.41333 197.896 4.48C197.15 3.52 195.75 3.04 193.696 3.04H185.936V13.52ZM205.691 27L216.331 0.319998H219.211L229.811 27H226.731L217.491 3L218.091 2.92L208.811 27H205.691ZM210.371 18.68L211.611 15.92H224.691L224.891 18.68H210.371ZM238.626 27L228.386 0.319998H231.466L240.706 24.56H239.666L248.746 0.399999L251.706 0.319998L241.466 27H238.626ZM255.908 27V0.319998H272.748V3.04H258.788V12.24H271.068V15.04H258.788V24.28H272.748V27H255.908ZM279.15 27V0.319998H282.03V24.2H295.67V27H279.15Z" fill="black"/>
</svg>
